<svg xmlns="http://www.w3.org/2000/svg" width="512" height="512" viewBox="0 0 512 512" version="1.1">
	<path d="M 255.250 194.662 C 253.583 195.335, 253.540 209.140, 255.200 210.800 C 255.893 211.493, 259.210 212, 263.045 212 C 271.608 212, 273 210.653, 273 202.371 C 273 199.060, 272.465 195.865, 271.800 195.200 C 270.622 194.022, 257.865 193.607, 255.250 194.662 M 233.750 200.080 C 232.302 200.924, 232 202.557, 232 209.550 C 232 214.197, 231.619 218, 231.154 218 C 230.688 218, 228.840 217.268, 227.046 216.373 C 224.622 215.164, 222.038 214.872, 216.968 215.234 C 206.399 215.991, 198.861 221.220, 193.820 231.292 L 191.422 236.084 189.741 232.292 C 181.453 213.598, 155.997 209.060, 141.561 223.703 C 133.681 231.696, 130.870 244.394, 134.575 255.266 C 136.647 261.348, 143.006 268.441, 149.377 271.778 C 156.380 275.446, 168.169 275.648, 175.127 272.220 C 181.086 269.284, 186.417 264.072, 189.337 258.327 L 191.653 253.770 194.377 259.339 C 198.734 268.244, 206.969 273.851, 216.928 274.694 C 221.528 275.083, 223.365 274.720, 227.455 272.615 C 232.375 270.082, 232.424 270.078, 234.244 272.032 C 235.667 273.559, 237.398 274, 241.968 274 C 251.510 274, 251 276.120, 251 236.485 L 251 202.113 248.777 200.557 C 246.243 198.781, 236.510 198.473, 233.750 200.080 M 84.613 208.565 C 83.536 211.372, 83.956 221.556, 85.200 222.800 C 85.914 223.514, 89.356 224, 93.700 224 L 101 224 101 247.066 C 101 261.053, 101.407 270.893, 102.035 272.066 C 102.922 273.723, 104.182 274, 110.835 274 C 115.541 274, 119.073 273.527, 119.800 272.800 C 120.666 271.934, 121 264.978, 121 247.800 L 121 224 128.378 224 C 137.573 224, 138.191 223.367, 137.798 214.340 L 137.500 207.500 111.363 207.234 C 88.183 206.997, 85.157 207.148, 84.613 208.565 M 255.200 217.200 C 253.490 218.910, 253.490 271.090, 255.200 272.800 C 257.046 274.646, 269.496 274.361, 271.429 272.429 C 272.776 271.081, 273 267.173, 273 245 C 273 222.827, 272.776 218.919, 271.429 217.571 C 269.496 215.639, 257.046 215.354, 255.200 217.200 M 158.096 233.215 C 152.301 236.313, 149.703 243.959, 152.318 250.220 C 154.201 254.726, 157.847 257.200, 162.605 257.200 C 176.247 257.200, 177.433 234.401, 163.893 232.426 C 162.027 232.154, 159.418 232.509, 158.096 233.215 M 216.030 233.230 C 206.141 238.431, 207.171 253.894, 217.606 256.887 C 221.479 257.998, 227.756 255.957, 230.190 252.795 C 234.257 247.511, 233.172 238.711, 227.976 234.831 C 224.651 232.349, 219.116 231.607, 216.030 233.230 M 297.502 240.563 C 290.087 244.460, 288 248.690, 288 259.820 C 288 268.750, 289.814 272.610, 295.955 276.749 L 299.362 279.045 359.931 278.772 C 418.716 278.508, 420.579 278.441, 423.182 276.500 C 428.222 272.742, 430 268.117, 430 258.762 C 430 249.487, 428.461 245.878, 422.677 241.592 C 419.897 239.531, 418.961 239.496, 360.177 239.244 C 307.463 239.017, 300.150 239.171, 297.502 240.563 M 368.915 246.602 C 368.027 247.672, 367.988 248.388, 368.775 249.175 C 370.156 250.556, 373 249.522, 373 247.638 C 373 245.555, 370.344 244.881, 368.915 246.602 M 311.328 254.394 C 305.309 259.572, 309.089 270, 316.986 270 C 321.244 270, 326.982 265.813, 323.612 265.164 C 322.609 264.971, 321.295 265.305, 320.694 265.906 C 318.914 267.686, 314.180 267.205, 313.070 265.131 C 311.629 262.438, 312.567 262, 319.775 262 L 326.217 262 325.571 259.250 C 324.697 255.529, 320.524 252, 317 252 C 315.395 252, 312.875 253.064, 311.328 254.394 M 329.667 252.667 C 329.300 253.033, 329 257.083, 329 261.667 C 329 269.333, 329.160 270, 331 270 C 332.794 270, 333 269.333, 333 263.535 C 333 258.167, 333.328 256.895, 334.934 256.035 C 339.621 253.527, 342 256.233, 342 264.071 C 342 268.675, 342.335 270, 343.500 270 C 344.690 270, 345 268.556, 345 263 C 345 257.333, 344.619 255.619, 343 254 C 340.795 251.795, 337.899 251.449, 334.934 253.035 C 333.601 253.749, 333 253.749, 333 253.035 C 333 251.883, 330.704 251.629, 329.667 252.667 M 349.052 253.750 C 349.081 254.713, 350.380 258.650, 351.939 262.500 C 354.256 268.221, 355.181 269.500, 357 269.500 C 358.819 269.500, 359.744 268.221, 362.061 262.500 C 365.251 254.622, 365.638 252, 363.610 252 C 362.801 252, 361.260 254.717, 359.925 258.500 C 358.663 262.075, 357.372 265, 357.056 265 C 356.740 265, 355.433 262.075, 354.151 258.500 C 352.779 254.676, 351.239 252, 350.410 252 C 349.634 252, 349.024 252.787, 349.052 253.750 M 369 261 C 369 268.333, 369.278 270, 370.500 270 C 371.722 270, 372 268.333, 372 261 C 372 253.667, 371.722 252, 370.500 252 C 369.278 252, 369 253.667, 369 261 M 378.923 254.923 C 373.046 260.801, 376.743 269.936, 385 269.936 C 390.364 269.936, 394 266.120, 394 260.489 C 394 256.710, 389.007 252, 385 252 C 382.848 252, 380.918 252.928, 378.923 254.923 M 399.223 253.557 C 395.121 256.429, 397.093 260.645, 403.500 262.702 C 407.368 263.945, 408.173 267, 404.632 267 C 403.249 267, 401.840 266.550, 401.500 266 C 400.716 264.731, 397 264.684, 397 265.943 C 397 267.649, 401.385 270, 404.568 270 C 408.128 270, 411.348 267.085, 410.838 264.324 C 410.652 263.321, 408.475 261.529, 406 260.341 C 403.525 259.154, 401.500 257.579, 401.500 256.841 C 401.500 254.885, 405.883 254.532, 406.611 256.430 C 407.281 258.174, 409.554 258.530, 410.477 257.036 C 411.465 255.439, 407.194 252, 404.223 252 C 402.695 252, 400.445 252.701, 399.223 253.557 M 313.562 256.581 C 311.320 258.823, 312.503 260, 317 260 C 319.135 260, 321.138 259.586, 321.450 259.081 C 322.253 257.782, 319.220 255, 317 255 C 315.979 255, 314.432 255.711, 313.562 256.581 M 381.655 256.829 C 378.511 260.303, 380.474 267, 384.637 267 C 387.989 267, 390 264.952, 390 261.536 C 390 255.740, 385.128 252.991, 381.655 256.829 M 217.063 286.142 C 209.564 294.304, 201.208 298.379, 191.022 298.843 C 185.307 299.103, 182.247 298.709, 178.282 297.201 C 174.438 295.739, 172.817 295.517, 172.122 296.358 C 171.179 297.499, 168 308.755, 168 310.951 C 168 312.695, 175.694 315.753, 183.033 316.925 C 196.965 319.151, 211.661 314.001, 223.647 302.694 C 227.460 299.098, 231.191 295.012, 231.938 293.616 C 233.195 291.267, 233.012 290.663, 229.482 285.539 C 227.384 282.492, 224.955 280.051, 224.084 280.113 C 223.213 280.175, 220.053 282.888, 217.063 286.142" stroke="none" fill="black" fill-rule="evenodd"/>
</svg>